<svg id="Слой_1" data-name="Слой 1" xmlns="http://www.w3.org/2000/svg" viewBox="0 0 57.76 57.76"><defs><style>.cls-1{fill:#e3b873;}.cls-2{fill:none;stroke:#fff;stroke-width:8px;}.cls-3{fill:#fff;}</style></defs><title>Group 65</title><rect class="cls-1" x="8" y="8" width="41.76" height="41.76" rx="20.88"/><rect class="cls-2" x="4" y="4" width="49.76" height="49.76" rx="24.88"/><path class="cls-3" d="M26.62,40.45A4.77,4.77,0,0,1,24,39.68a5.27,5.27,0,0,1-1.89-2.25,8.42,8.42,0,0,1-.69-3.55,8.29,8.29,0,0,1,.69-3.53A5.19,5.19,0,0,1,24,28.09a4.87,4.87,0,0,1,5.29,0,5.22,5.22,0,0,1,1.87,2.26,8.14,8.14,0,0,1,.7,3.53,8.27,8.27,0,0,1-.7,3.55,5.3,5.3,0,0,1-1.87,2.25A4.8,4.8,0,0,1,26.62,40.45Zm0-.36q2.07,0,2.07-6.21t-2.07-6.21q-2.07,0-2.07,6.21T26.62,40.09Zm7.29.09v-.27l1.26-.36V29.67L33.28,31l-.36-.45,3.28-3h1.94v12l1.26.36v.27Z" transform="translate(-1.05 -5.4)"/></svg>